<svg xmlns:xlink="http://www.w3.org/1999/xlink" xmlns="http://www.w3.org/2000/svg" viewBox="0 0 256 256" focusable="false" color="var(--token-d7854c1d-5984-4e61-98e5-b00b3c8c9c9e, rgb(89, 142, 255))" style="user-select: none; width: 100%; height: 100%; display: inline-block; fill: var(--token-d7854c1d-5984-4e61-98e5-b00b3c8c9c9e, rgb(89, 142, 255)); color: var(--token-d7854c1d-5984-4e61-98e5-b00b3c8c9c9e, rgb(89, 142, 255)); flex-shrink: 0;" width="256"  height="256" ><g color="var(--token-d7854c1d-5984-4e61-98e5-b00b3c8c9c9e, rgb(89, 142, 255))" weight="fill" fill="#1CA8FF"><path d="M232,128v56a24,24,0,0,1-24,24H192a24,24,0,0,1-24-24V144a24,24,0,0,1,24-24h23.65a87.71,87.71,0,0,0-87-80H128a88,88,0,0,0-87.64,80H64a24,24,0,0,1,24,24v40a24,24,0,0,1-24,24H48a24,24,0,0,1-24-24V128A104.11,104.11,0,0,1,201.89,54.66,103.41,103.41,0,0,1,232,128Z" fill="#1CA8FF"></path></g></svg>