<svg xmlns:xlink="http://www.w3.org/1999/xlink" xmlns="http://www.w3.org/2000/svg" viewBox="0 0 256 256" focusable="false" color="var(--token-48b39559-511b-467b-b2b2-1e630f417705, rgb(255, 184, 54))" style="user-select: none; width: 100%; height: 100%; display: inline-block; fill: var(--token-48b39559-511b-467b-b2b2-1e630f417705, rgb(255, 184, 54)); color: var(--token-48b39559-511b-467b-b2b2-1e630f417705, rgb(255, 184, 54)); flex-shrink: 0;" width="256"  height="256" ><g color="var(--token-48b39559-511b-467b-b2b2-1e630f417705, rgb(255, 184, 54))" weight="fill" fill="#FFC42E"><path d="M216,40H40A16,16,0,0,0,24,56V200a16,16,0,0,0,16,16H216a16,16,0,0,0,16-16V56A16,16,0,0,0,216,40ZM92.8,145.6a8,8,0,1,1-9.6,12.8l-32-24a8,8,0,0,1,0-12.8l32-24a8,8,0,0,1,9.6,12.8L69.33,128Zm58.89-71.4-32,112a8,8,0,1,1-15.38-4.4l32-112a8,8,0,0,1,15.38,4.4Zm53.11,60.2-32,24a8,8,0,0,1-9.6-12.8L186.67,128,163.2,110.4a8,8,0,1,1,9.6-12.8l32,24a8,8,0,0,1,0,12.8Z" fill="#FFC42E"></path></g></svg>